<mxfile host="" modified="2020-06-05T12:42:10.646Z" agent="5.0 (X11; Linux x86_64) AppleWebKit/537.36 (KHTML, like Gecko) code-oss/1.45.1 Chrome/78.0.3904.130 Electron/7.1.14 Safari/537.36" etag="2d8c5CplbXgnQYSthnfC" version="13.1.3">
    <diagram name="Page-1" id="03018318-947c-dd8e-b7a3-06fadd420f32">
        <mxGraphModel dx="402" dy="807" grid="1" gridSize="10" guides="1" tooltips="1" connect="1" arrows="1" fold="1" page="1" pageScale="1" pageWidth="1100" pageHeight="850" background="#ffffff" math="0" shadow="0">
            <root>
                <mxCell id="0"/>
                <mxCell id="1" parent="0"/>
                <mxCell id="1nkuXsdnBj_dKvGc0rOm-2" value="Devtool" style="strokeWidth=1;shadow=0;dashed=0;align=center;html=1;shape=mxgraph.mockup.containers.window;align=left;verticalAlign=top;spacingLeft=8;strokeColor2=#008cff;strokeColor3=#c4c4c4;fontColor=#666666;mainText=;fontSize=17;labelBackgroundColor=none;" parent="1" vertex="1">
                    <mxGeometry x="20" y="10" width="1300" height="700" as="geometry"/>
                </mxCell>
                <mxCell id="1nkuXsdnBj_dKvGc0rOm-3" value="Filtrer" style="strokeWidth=1;shadow=0;dashed=0;align=center;html=1;shape=mxgraph.mockup.forms.searchBox;strokeColor=#999999;mainText=;strokeColor2=#008cff;fontColor=#666666;fontSize=17;align=left;spacingLeft=3;" parent="1" vertex="1">
                    <mxGeometry x="30" y="59" width="200" height="30" as="geometry"/>
                </mxCell>
                <mxCell id="1nkuXsdnBj_dKvGc0rOm-4" value="" style="strokeWidth=1;shadow=0;dashed=0;align=center;html=1;shape=mxgraph.mockup.forms.rrect;rSize=0;strokeColor=#999999;fillColor=#ffffff;" parent="1" vertex="1">
                    <mxGeometry x="30" y="89" width="200" height="560" as="geometry"/>
                </mxCell>
                <mxCell id="1nkuXsdnBj_dKvGc0rOm-5" value="Title" style="strokeWidth=1;shadow=0;dashed=0;align=center;html=1;shape=mxgraph.mockup.forms.rrect;rSize=0;strokeColor=#999999;fontColor=#008cff;fontSize=17;fillColor=#ffffff;resizeWidth=1;" parent="1nkuXsdnBj_dKvGc0rOm-4" vertex="1">
                    <mxGeometry width="200" height="30" relative="1" as="geometry"/>
                </mxCell>
                <mxCell id="1nkuXsdnBj_dKvGc0rOm-6" value="Item 1" style="strokeWidth=1;shadow=0;dashed=0;align=center;html=1;shape=mxgraph.mockup.forms.anchor;fontSize=17;fontColor=#666666;align=left;spacingLeft=5;resizeWidth=1;" parent="1nkuXsdnBj_dKvGc0rOm-4" vertex="1">
                    <mxGeometry width="200" height="20" relative="1" as="geometry">
                        <mxPoint y="30" as="offset"/>
                    </mxGeometry>
                </mxCell>
                <mxCell id="1nkuXsdnBj_dKvGc0rOm-7" value="Item 2" style="strokeWidth=1;shadow=0;dashed=0;align=center;html=1;shape=mxgraph.mockup.forms.anchor;fontSize=17;fontColor=#666666;align=left;spacingLeft=5;resizeWidth=1;" parent="1nkuXsdnBj_dKvGc0rOm-4" vertex="1">
                    <mxGeometry width="200" height="20" relative="1" as="geometry">
                        <mxPoint y="50" as="offset"/>
                    </mxGeometry>
                </mxCell>
                <mxCell id="1nkuXsdnBj_dKvGc0rOm-8" value="Item 3" style="strokeWidth=1;shadow=0;dashed=0;align=center;html=1;shape=mxgraph.mockup.forms.rrect;rSize=0;fontSize=17;fontColor=#666666;align=left;spacingLeft=5;fillColor=#ddeeff;strokeColor=none;resizeWidth=1;" parent="1nkuXsdnBj_dKvGc0rOm-4" vertex="1">
                    <mxGeometry width="200" height="20" relative="1" as="geometry">
                        <mxPoint y="70" as="offset"/>
                    </mxGeometry>
                </mxCell>
                <mxCell id="1nkuXsdnBj_dKvGc0rOm-9" value="Item 4" style="strokeWidth=1;shadow=0;dashed=0;align=center;html=1;shape=mxgraph.mockup.forms.anchor;fontSize=17;fontColor=#666666;align=left;spacingLeft=5;resizeWidth=1;" parent="1nkuXsdnBj_dKvGc0rOm-4" vertex="1">
                    <mxGeometry width="200" height="20" relative="1" as="geometry">
                        <mxPoint y="90" as="offset"/>
                    </mxGeometry>
                </mxCell>
                <mxCell id="1nkuXsdnBj_dKvGc0rOm-17" value="Dossier" style="strokeWidth=1;shadow=0;dashed=0;align=center;html=1;shape=mxgraph.mockup.navigation.anchor;fontSize=17;fontColor=#666666;fontStyle=1;" parent="1" vertex="1">
                    <mxGeometry x="270" y="59" width="60" height="30" as="geometry"/>
                </mxCell>
                <mxCell id="1nkuXsdnBj_dKvGc0rOm-18" value="&gt;" style="strokeWidth=1;shadow=0;dashed=0;align=center;html=1;shape=mxgraph.mockup.navigation.anchor;fontSize=24;fontColor=#aaaaaa;fontStyle=1;" parent="1" vertex="1">
                    <mxGeometry x="330" y="59" width="20" height="30" as="geometry"/>
                </mxCell>
                <mxCell id="1nkuXsdnBj_dKvGc0rOm-19" value="Dossier" style="strokeWidth=1;shadow=0;dashed=0;align=center;html=1;shape=mxgraph.mockup.navigation.anchor;fontSize=17;fontColor=#666666;fontStyle=1;" parent="1" vertex="1">
                    <mxGeometry x="350" y="59" width="60" height="30" as="geometry"/>
                </mxCell>
                <mxCell id="1nkuXsdnBj_dKvGc0rOm-20" value="&gt;" style="strokeWidth=1;shadow=0;dashed=0;align=center;html=1;shape=mxgraph.mockup.navigation.anchor;fontSize=24;fontColor=#aaaaaa;fontStyle=1;" parent="1" vertex="1">
                    <mxGeometry x="410" y="59" width="20" height="30" as="geometry"/>
                </mxCell>
                <mxCell id="1nkuXsdnBj_dKvGc0rOm-21" value="Dossier" style="strokeWidth=1;shadow=0;dashed=0;align=center;html=1;shape=mxgraph.mockup.navigation.anchor;fontSize=17;fontColor=#666666;fontStyle=1;" parent="1" vertex="1">
                    <mxGeometry x="430" y="59" width="60" height="30" as="geometry"/>
                </mxCell>
                <mxCell id="1nkuXsdnBj_dKvGc0rOm-22" value="&gt;" style="strokeWidth=1;shadow=0;dashed=0;align=center;html=1;shape=mxgraph.mockup.navigation.anchor;fontSize=24;fontColor=#aaaaaa;fontStyle=1;" parent="1" vertex="1">
                    <mxGeometry x="490" y="59" width="20" height="30" as="geometry"/>
                </mxCell>
                <mxCell id="1nkuXsdnBj_dKvGc0rOm-23" value="&lt;div&gt;Exemple&lt;/div&gt;" style="strokeWidth=1;shadow=0;dashed=0;align=center;html=1;shape=mxgraph.mockup.navigation.anchor;fontSize=17;fontColor=#008cff;fontStyle=1;" parent="1" vertex="1">
                    <mxGeometry x="510" y="59" width="60" height="30" as="geometry"/>
                </mxCell>
                <mxCell id="1nkuXsdnBj_dKvGc0rOm-24" value="select foo from bar where foo &amp;gt; 0;" style="strokeWidth=1;shadow=0;dashed=0;align=center;html=1;shape=mxgraph.mockup.text.textBox;fontColor=#666666;align=left;fontSize=17;spacingLeft=4;spacingTop=-3;strokeColor=#666666;mainText=" parent="1" vertex="1">
                    <mxGeometry x="270" y="110" width="540" height="540" as="geometry"/>
                </mxCell>
                <mxCell id="1nkuXsdnBj_dKvGc0rOm-30" value="Serveur" style="strokeWidth=1;shadow=0;dashed=0;align=center;html=1;shape=mxgraph.mockup.forms.pwField;strokeColor=#999999;mainText=;align=left;fontColor=#666666;fontSize=17;spacingLeft=3;" parent="1" vertex="1">
                    <mxGeometry x="850" y="59" width="360" height="30" as="geometry"/>
                </mxCell>
                <mxCell id="1nkuXsdnBj_dKvGc0rOm-31" value="Nom d'utilisateur" style="strokeWidth=1;shadow=0;dashed=0;align=center;html=1;shape=mxgraph.mockup.forms.pwField;strokeColor=#999999;mainText=;align=left;fontColor=#666666;fontSize=17;spacingLeft=3;" parent="1" vertex="1">
                    <mxGeometry x="850" y="100" width="170" height="30" as="geometry"/>
                </mxCell>
                <mxCell id="1nkuXsdnBj_dKvGc0rOm-32" value="Mot de passe" style="strokeWidth=1;shadow=0;dashed=0;align=center;html=1;shape=mxgraph.mockup.forms.pwField;strokeColor=#999999;mainText=;align=left;fontColor=#666666;fontSize=17;spacingLeft=3;" parent="1" vertex="1">
                    <mxGeometry x="1040" y="100" width="170" height="30" as="geometry"/>
                </mxCell>
                <mxCell id="1nkuXsdnBj_dKvGc0rOm-33" value="Exécuter la requête sélectionnée" style="strokeWidth=1;shadow=0;dashed=0;align=center;html=1;shape=mxgraph.mockup.buttons.button;strokeColor=#666666;fontColor=#ffffff;mainText=;buttonStyle=round;fontSize=17;fontStyle=1;fillColor=#008cff;whiteSpace=wrap;" parent="1" vertex="1">
                    <mxGeometry x="850" y="150" width="300" height="40" as="geometry"/>
                </mxCell>
                <mxCell id="1nkuXsdnBj_dKvGc0rOm-34" value="Résultats" style="text;strokeColor=none;fillColor=none;html=1;fontSize=24;fontStyle=1;verticalAlign=middle;align=center;" parent="1" vertex="1">
                    <mxGeometry x="850" y="210" width="100" height="40" as="geometry"/>
                </mxCell>
                <mxCell id="1nkuXsdnBj_dKvGc0rOm-35" value="&lt;table cellpadding=&quot;4&quot; cellspacing=&quot;0&quot; border=&quot;1&quot; style=&quot;font-size:1em;width:100%;height:100%;&quot;&gt;&lt;tr&gt;&lt;th&gt;Header 1&lt;/th&gt;&lt;th&gt;Header 2&lt;/th&gt;&lt;/tr&gt;&lt;tr&gt;&lt;td&gt;row 1, cell 1&lt;/td&gt;&lt;td&gt;row 1, cell 2&lt;/td&gt;&lt;/tr&gt;&lt;tr&gt;&lt;td&gt;row 2, cell 1&lt;/td&gt;&lt;td&gt;row 2, cell 2&lt;/td&gt;&lt;/tr&gt;&lt;/table&gt; " style="verticalAlign=top;align=left;overflow=fill;fontSize=12;fontFamily=Helvetica;html=1" parent="1" vertex="1">
                    <mxGeometry x="850" y="250" width="430" height="350" as="geometry"/>
                </mxCell>
                <mxCell id="1nkuXsdnBj_dKvGc0rOm-36" value="Export CSV" style="strokeWidth=1;shadow=0;dashed=0;align=center;html=1;shape=mxgraph.mockup.buttons.button;strokeColor=#666666;fontColor=#ffffff;mainText=;buttonStyle=round;fontSize=17;fontStyle=1;fillColor=#008cff;whiteSpace=wrap;" parent="1" vertex="1">
                    <mxGeometry x="1110" y="620" width="170" height="40" as="geometry"/>
                </mxCell>
            </root>
        </mxGraphModel>
    </diagram>
</mxfile>